<mxfile host="app.diagrams.net" modified="2021-01-07T05:49:54.498Z" agent="5.0 (Windows NT 10.0; Win64; x64) AppleWebKit/537.36 (KHTML, like Gecko) Chrome/87.0.4280.88 Safari/537.36" etag="d62lUd-ZK8hJV9LZwEpk" version="13.8.9-1" type="github">
  <diagram id="vDsj7gB0pOgBq1WQOLaf" name="Page-1">
    <mxGraphModel dx="1422" dy="746" grid="1" gridSize="10" guides="1" tooltips="1" connect="1" arrows="1" fold="1" page="1" pageScale="1" pageWidth="827" pageHeight="1169" math="0" shadow="0">
      <root>
        <mxCell id="0" />
        <mxCell id="1" parent="0" />
        <mxCell id="hbLUMs-cLDC_c3JnMp7D-1" value="master" style="text;html=1;strokeColor=none;fillColor=none;align=center;verticalAlign=middle;whiteSpace=wrap;rounded=0;fontSize=20;" vertex="1" parent="1">
          <mxGeometry x="143" y="80" width="40" height="20" as="geometry" />
        </mxCell>
        <mxCell id="hbLUMs-cLDC_c3JnMp7D-2" value="" style="endArrow=none;dashed=1;html=1;fontSize=20;" edge="1" parent="1" source="hbLUMs-cLDC_c3JnMp7D-14">
          <mxGeometry width="50" height="50" relative="1" as="geometry">
            <mxPoint x="223" y="90" as="sourcePoint" />
            <mxPoint x="803" y="90" as="targetPoint" />
          </mxGeometry>
        </mxCell>
        <mxCell id="hbLUMs-cLDC_c3JnMp7D-3" value="" style="ellipse;whiteSpace=wrap;html=1;fontSize=20;fontColor=#99FF99;fillColor=#99FF99;" vertex="1" parent="1">
          <mxGeometry x="253" y="75" width="30" height="30" as="geometry" />
        </mxCell>
        <mxCell id="hbLUMs-cLDC_c3JnMp7D-4" value="" style="endArrow=none;dashed=1;html=1;fontSize=20;" edge="1" parent="1" target="hbLUMs-cLDC_c3JnMp7D-3">
          <mxGeometry width="50" height="50" relative="1" as="geometry">
            <mxPoint x="223" y="90" as="sourcePoint" />
            <mxPoint x="803" y="90" as="targetPoint" />
          </mxGeometry>
        </mxCell>
        <mxCell id="hbLUMs-cLDC_c3JnMp7D-5" value="1.0.0" style="text;html=1;strokeColor=none;fillColor=none;align=center;verticalAlign=middle;whiteSpace=wrap;rounded=0;fontSize=16;" vertex="1" parent="1">
          <mxGeometry x="248" y="50" width="40" height="20" as="geometry" />
        </mxCell>
        <mxCell id="hbLUMs-cLDC_c3JnMp7D-6" value="dev" style="text;html=1;strokeColor=none;fillColor=none;align=center;verticalAlign=middle;whiteSpace=wrap;rounded=0;fontSize=20;" vertex="1" parent="1">
          <mxGeometry x="143" y="255" width="40" height="20" as="geometry" />
        </mxCell>
        <mxCell id="hbLUMs-cLDC_c3JnMp7D-7" value="" style="endArrow=none;dashed=1;html=1;fontSize=20;" edge="1" parent="1" source="hbLUMs-cLDC_c3JnMp7D-8">
          <mxGeometry width="50" height="50" relative="1" as="geometry">
            <mxPoint x="223" y="265" as="sourcePoint" />
            <mxPoint x="803" y="265" as="targetPoint" />
          </mxGeometry>
        </mxCell>
        <mxCell id="hbLUMs-cLDC_c3JnMp7D-8" value="" style="ellipse;whiteSpace=wrap;html=1;fontSize=20;fontColor=#99FF99;fillColor=#FF8000;" vertex="1" parent="1">
          <mxGeometry x="608" y="250" width="30" height="30" as="geometry" />
        </mxCell>
        <mxCell id="hbLUMs-cLDC_c3JnMp7D-9" value="" style="endArrow=none;dashed=1;html=1;fontSize=20;" edge="1" parent="1" source="hbLUMs-cLDC_c3JnMp7D-46" target="hbLUMs-cLDC_c3JnMp7D-8">
          <mxGeometry width="50" height="50" relative="1" as="geometry">
            <mxPoint x="318" y="265" as="sourcePoint" />
            <mxPoint x="898" y="265" as="targetPoint" />
          </mxGeometry>
        </mxCell>
        <mxCell id="hbLUMs-cLDC_c3JnMp7D-10" value="feature-lj-xxx" style="text;html=1;strokeColor=none;fillColor=none;align=center;verticalAlign=middle;whiteSpace=wrap;rounded=0;fontSize=20;" vertex="1" parent="1">
          <mxGeometry x="63" y="335" width="140" height="20" as="geometry" />
        </mxCell>
        <mxCell id="hbLUMs-cLDC_c3JnMp7D-11" value="" style="endArrow=none;dashed=1;html=1;fontSize=20;" edge="1" parent="1" source="hbLUMs-cLDC_c3JnMp7D-20">
          <mxGeometry width="50" height="50" relative="1" as="geometry">
            <mxPoint x="223" y="345" as="sourcePoint" />
            <mxPoint x="803" y="345" as="targetPoint" />
          </mxGeometry>
        </mxCell>
        <mxCell id="hbLUMs-cLDC_c3JnMp7D-12" value="" style="ellipse;whiteSpace=wrap;html=1;fontSize=20;fontColor=#99FF99;fillColor=#3399FF;" vertex="1" parent="1">
          <mxGeometry x="379" y="330" width="30" height="30" as="geometry" />
        </mxCell>
        <mxCell id="hbLUMs-cLDC_c3JnMp7D-13" value="" style="endArrow=none;dashed=1;html=1;fontSize=20;" edge="1" parent="1" target="hbLUMs-cLDC_c3JnMp7D-12">
          <mxGeometry width="50" height="50" relative="1" as="geometry">
            <mxPoint x="223" y="345" as="sourcePoint" />
            <mxPoint x="803" y="345" as="targetPoint" />
          </mxGeometry>
        </mxCell>
        <mxCell id="hbLUMs-cLDC_c3JnMp7D-14" value="" style="ellipse;whiteSpace=wrap;html=1;fontSize=20;fontColor=#99FF99;fillColor=#99FF99;" vertex="1" parent="1">
          <mxGeometry x="608" y="75" width="30" height="30" as="geometry" />
        </mxCell>
        <mxCell id="hbLUMs-cLDC_c3JnMp7D-15" value="" style="endArrow=none;dashed=1;html=1;fontSize=20;" edge="1" parent="1" source="hbLUMs-cLDC_c3JnMp7D-42" target="hbLUMs-cLDC_c3JnMp7D-14">
          <mxGeometry width="50" height="50" relative="1" as="geometry">
            <mxPoint x="378" y="90" as="sourcePoint" />
            <mxPoint x="898" y="90" as="targetPoint" />
          </mxGeometry>
        </mxCell>
        <mxCell id="hbLUMs-cLDC_c3JnMp7D-16" value="1.1.1" style="text;html=1;strokeColor=none;fillColor=none;align=center;verticalAlign=middle;whiteSpace=wrap;rounded=0;fontSize=16;" vertex="1" parent="1">
          <mxGeometry x="603" y="50" width="40" height="20" as="geometry" />
        </mxCell>
        <mxCell id="hbLUMs-cLDC_c3JnMp7D-17" value="" style="endArrow=classic;html=1;fontSize=16;fontColor=#000000;exitX=1;exitY=1;exitDx=0;exitDy=0;entryX=0;entryY=0;entryDx=0;entryDy=0;" edge="1" parent="1" source="hbLUMs-cLDC_c3JnMp7D-3" target="hbLUMs-cLDC_c3JnMp7D-12">
          <mxGeometry width="50" height="50" relative="1" as="geometry">
            <mxPoint x="632" y="190" as="sourcePoint" />
            <mxPoint x="682" y="140" as="targetPoint" />
          </mxGeometry>
        </mxCell>
        <mxCell id="hbLUMs-cLDC_c3JnMp7D-18" value="" style="ellipse;whiteSpace=wrap;html=1;fontSize=20;fontColor=#99FF99;fillColor=#3399FF;" vertex="1" parent="1">
          <mxGeometry x="488" y="330" width="30" height="30" as="geometry" />
        </mxCell>
        <mxCell id="hbLUMs-cLDC_c3JnMp7D-19" value="" style="endArrow=none;dashed=1;html=1;fontSize=20;" edge="1" parent="1" source="hbLUMs-cLDC_c3JnMp7D-12" target="hbLUMs-cLDC_c3JnMp7D-18">
          <mxGeometry width="50" height="50" relative="1" as="geometry">
            <mxPoint x="409" y="345" as="sourcePoint" />
            <mxPoint x="929" y="345" as="targetPoint" />
          </mxGeometry>
        </mxCell>
        <mxCell id="hbLUMs-cLDC_c3JnMp7D-20" value="" style="ellipse;whiteSpace=wrap;html=1;fontSize=20;fontColor=#99FF99;fillColor=#3399FF;" vertex="1" parent="1">
          <mxGeometry x="608" y="330" width="30" height="30" as="geometry" />
        </mxCell>
        <mxCell id="hbLUMs-cLDC_c3JnMp7D-21" value="" style="endArrow=none;dashed=1;html=1;fontSize=20;" edge="1" parent="1" source="hbLUMs-cLDC_c3JnMp7D-18" target="hbLUMs-cLDC_c3JnMp7D-20">
          <mxGeometry width="50" height="50" relative="1" as="geometry">
            <mxPoint x="518" y="345" as="sourcePoint" />
            <mxPoint x="968" y="345" as="targetPoint" />
          </mxGeometry>
        </mxCell>
        <mxCell id="hbLUMs-cLDC_c3JnMp7D-22" value="" style="endArrow=classic;html=1;fontSize=16;fontColor=#000000;exitX=1;exitY=0.5;exitDx=0;exitDy=0;entryX=0;entryY=0.5;entryDx=0;entryDy=0;" edge="1" parent="1" source="hbLUMs-cLDC_c3JnMp7D-12" target="hbLUMs-cLDC_c3JnMp7D-18">
          <mxGeometry width="50" height="50" relative="1" as="geometry">
            <mxPoint x="758" y="190" as="sourcePoint" />
            <mxPoint x="808" y="140" as="targetPoint" />
          </mxGeometry>
        </mxCell>
        <mxCell id="hbLUMs-cLDC_c3JnMp7D-23" value="" style="endArrow=classic;html=1;fontSize=16;fontColor=#000000;exitX=1;exitY=0.5;exitDx=0;exitDy=0;entryX=0;entryY=0.5;entryDx=0;entryDy=0;" edge="1" parent="1" source="hbLUMs-cLDC_c3JnMp7D-18" target="hbLUMs-cLDC_c3JnMp7D-20">
          <mxGeometry width="50" height="50" relative="1" as="geometry">
            <mxPoint x="797" y="190" as="sourcePoint" />
            <mxPoint x="847" y="140" as="targetPoint" />
          </mxGeometry>
        </mxCell>
        <mxCell id="hbLUMs-cLDC_c3JnMp7D-24" value="" style="endArrow=classic;html=1;fontSize=16;fontColor=#000000;exitX=0.5;exitY=0;exitDx=0;exitDy=0;entryX=0.5;entryY=1;entryDx=0;entryDy=0;" edge="1" parent="1" source="hbLUMs-cLDC_c3JnMp7D-20" target="hbLUMs-cLDC_c3JnMp7D-8">
          <mxGeometry width="50" height="50" relative="1" as="geometry">
            <mxPoint x="777" y="190" as="sourcePoint" />
            <mxPoint x="827" y="140" as="targetPoint" />
          </mxGeometry>
        </mxCell>
        <mxCell id="hbLUMs-cLDC_c3JnMp7D-25" value="" style="endArrow=classic;html=1;fontSize=16;fontColor=#000000;exitX=0.5;exitY=0;exitDx=0;exitDy=0;entryX=0.5;entryY=1;entryDx=0;entryDy=0;" edge="1" parent="1" source="hbLUMs-cLDC_c3JnMp7D-8" target="hbLUMs-cLDC_c3JnMp7D-14">
          <mxGeometry width="50" height="50" relative="1" as="geometry">
            <mxPoint x="847" y="190" as="sourcePoint" />
            <mxPoint x="897" y="140" as="targetPoint" />
          </mxGeometry>
        </mxCell>
        <mxCell id="hbLUMs-cLDC_c3JnMp7D-26" value="feature-zkh-xxx" style="text;html=1;strokeColor=none;fillColor=none;align=center;verticalAlign=middle;whiteSpace=wrap;rounded=0;fontSize=20;" vertex="1" parent="1">
          <mxGeometry x="50" y="415" width="140" height="20" as="geometry" />
        </mxCell>
        <mxCell id="hbLUMs-cLDC_c3JnMp7D-27" value="" style="endArrow=none;dashed=1;html=1;fontSize=20;" edge="1" parent="1" source="hbLUMs-cLDC_c3JnMp7D-32">
          <mxGeometry width="50" height="50" relative="1" as="geometry">
            <mxPoint x="223" y="425" as="sourcePoint" />
            <mxPoint x="803" y="425" as="targetPoint" />
          </mxGeometry>
        </mxCell>
        <mxCell id="hbLUMs-cLDC_c3JnMp7D-28" value="" style="ellipse;whiteSpace=wrap;html=1;fontSize=20;fontColor=#99FF99;fillColor=#3399FF;" vertex="1" parent="1">
          <mxGeometry x="253" y="410" width="30" height="30" as="geometry" />
        </mxCell>
        <mxCell id="hbLUMs-cLDC_c3JnMp7D-29" value="" style="endArrow=none;dashed=1;html=1;fontSize=20;" edge="1" parent="1" target="hbLUMs-cLDC_c3JnMp7D-28">
          <mxGeometry width="50" height="50" relative="1" as="geometry">
            <mxPoint x="223" y="425" as="sourcePoint" />
            <mxPoint x="803" y="425" as="targetPoint" />
          </mxGeometry>
        </mxCell>
        <mxCell id="hbLUMs-cLDC_c3JnMp7D-30" value="" style="ellipse;whiteSpace=wrap;html=1;fontSize=20;fontColor=#99FF99;fillColor=#3399FF;" vertex="1" parent="1">
          <mxGeometry x="379" y="410" width="30" height="30" as="geometry" />
        </mxCell>
        <mxCell id="hbLUMs-cLDC_c3JnMp7D-31" value="" style="endArrow=none;dashed=1;html=1;fontSize=20;" edge="1" parent="1" source="hbLUMs-cLDC_c3JnMp7D-28" target="hbLUMs-cLDC_c3JnMp7D-30">
          <mxGeometry width="50" height="50" relative="1" as="geometry">
            <mxPoint x="283" y="425" as="sourcePoint" />
            <mxPoint x="803" y="425" as="targetPoint" />
          </mxGeometry>
        </mxCell>
        <mxCell id="hbLUMs-cLDC_c3JnMp7D-32" value="" style="ellipse;whiteSpace=wrap;html=1;fontSize=20;fontColor=#99FF99;fillColor=#3399FF;" vertex="1" parent="1">
          <mxGeometry x="488" y="410" width="30" height="30" as="geometry" />
        </mxCell>
        <mxCell id="hbLUMs-cLDC_c3JnMp7D-33" value="" style="endArrow=none;dashed=1;html=1;fontSize=20;" edge="1" parent="1" source="hbLUMs-cLDC_c3JnMp7D-30" target="hbLUMs-cLDC_c3JnMp7D-32">
          <mxGeometry width="50" height="50" relative="1" as="geometry">
            <mxPoint x="409" y="425" as="sourcePoint" />
            <mxPoint x="859" y="425" as="targetPoint" />
          </mxGeometry>
        </mxCell>
        <mxCell id="hbLUMs-cLDC_c3JnMp7D-34" value="" style="endArrow=classic;html=1;fontSize=16;fontColor=#000000;exitX=1;exitY=0.5;exitDx=0;exitDy=0;entryX=0;entryY=0.5;entryDx=0;entryDy=0;" edge="1" parent="1" source="hbLUMs-cLDC_c3JnMp7D-28" target="hbLUMs-cLDC_c3JnMp7D-30">
          <mxGeometry width="50" height="50" relative="1" as="geometry">
            <mxPoint x="632" y="270" as="sourcePoint" />
            <mxPoint x="682" y="220" as="targetPoint" />
          </mxGeometry>
        </mxCell>
        <mxCell id="hbLUMs-cLDC_c3JnMp7D-35" value="" style="endArrow=classic;html=1;fontSize=16;fontColor=#000000;exitX=1;exitY=0.5;exitDx=0;exitDy=0;entryX=0;entryY=0.5;entryDx=0;entryDy=0;" edge="1" parent="1" source="hbLUMs-cLDC_c3JnMp7D-30" target="hbLUMs-cLDC_c3JnMp7D-32">
          <mxGeometry width="50" height="50" relative="1" as="geometry">
            <mxPoint x="688" y="270" as="sourcePoint" />
            <mxPoint x="738" y="220" as="targetPoint" />
          </mxGeometry>
        </mxCell>
        <mxCell id="hbLUMs-cLDC_c3JnMp7D-36" value="" style="endArrow=classic;html=1;fontSize=16;fontColor=#000000;exitX=0.5;exitY=1;exitDx=0;exitDy=0;entryX=0.5;entryY=0;entryDx=0;entryDy=0;" edge="1" parent="1" source="hbLUMs-cLDC_c3JnMp7D-3" target="hbLUMs-cLDC_c3JnMp7D-28">
          <mxGeometry width="50" height="50" relative="1" as="geometry">
            <mxPoint x="632" y="190" as="sourcePoint" />
            <mxPoint x="682" y="140" as="targetPoint" />
          </mxGeometry>
        </mxCell>
        <mxCell id="hbLUMs-cLDC_c3JnMp7D-37" value="hotfix-lj-xxx" style="text;html=1;strokeColor=none;fillColor=none;align=center;verticalAlign=middle;whiteSpace=wrap;rounded=0;fontSize=20;" vertex="1" parent="1">
          <mxGeometry x="83" y="175" width="120" height="20" as="geometry" />
        </mxCell>
        <mxCell id="hbLUMs-cLDC_c3JnMp7D-38" value="" style="endArrow=none;dashed=1;html=1;fontSize=20;" edge="1" parent="1" source="hbLUMs-cLDC_c3JnMp7D-39">
          <mxGeometry width="50" height="50" relative="1" as="geometry">
            <mxPoint x="223" y="185" as="sourcePoint" />
            <mxPoint x="803" y="185" as="targetPoint" />
          </mxGeometry>
        </mxCell>
        <mxCell id="hbLUMs-cLDC_c3JnMp7D-39" value="" style="ellipse;whiteSpace=wrap;html=1;fontSize=20;fontColor=#99FF99;fillColor=#9933FF;" vertex="1" parent="1">
          <mxGeometry x="427" y="170" width="30" height="30" as="geometry" />
        </mxCell>
        <mxCell id="hbLUMs-cLDC_c3JnMp7D-40" value="" style="endArrow=none;dashed=1;html=1;fontSize=20;" edge="1" parent="1" source="hbLUMs-cLDC_c3JnMp7D-50" target="hbLUMs-cLDC_c3JnMp7D-39">
          <mxGeometry width="50" height="50" relative="1" as="geometry">
            <mxPoint x="223" y="185" as="sourcePoint" />
            <mxPoint x="803" y="185" as="targetPoint" />
          </mxGeometry>
        </mxCell>
        <mxCell id="hbLUMs-cLDC_c3JnMp7D-41" value="" style="endArrow=classic;html=1;fontSize=16;fontColor=#000000;exitX=1;exitY=1;exitDx=0;exitDy=0;entryX=0;entryY=0;entryDx=0;entryDy=0;" edge="1" parent="1" source="hbLUMs-cLDC_c3JnMp7D-3" target="hbLUMs-cLDC_c3JnMp7D-50">
          <mxGeometry width="50" height="50" relative="1" as="geometry">
            <mxPoint x="623" y="170" as="sourcePoint" />
            <mxPoint x="383" y="140" as="targetPoint" />
          </mxGeometry>
        </mxCell>
        <mxCell id="hbLUMs-cLDC_c3JnMp7D-42" value="" style="ellipse;whiteSpace=wrap;html=1;fontSize=20;fontColor=#99FF99;fillColor=#99FF99;" vertex="1" parent="1">
          <mxGeometry x="488" y="75" width="30" height="30" as="geometry" />
        </mxCell>
        <mxCell id="hbLUMs-cLDC_c3JnMp7D-43" value="" style="endArrow=none;dashed=1;html=1;fontSize=20;" edge="1" parent="1" source="hbLUMs-cLDC_c3JnMp7D-3" target="hbLUMs-cLDC_c3JnMp7D-42">
          <mxGeometry width="50" height="50" relative="1" as="geometry">
            <mxPoint x="283" y="90" as="sourcePoint" />
            <mxPoint x="463" y="90" as="targetPoint" />
          </mxGeometry>
        </mxCell>
        <mxCell id="hbLUMs-cLDC_c3JnMp7D-44" value="1.0.1" style="text;html=1;strokeColor=none;fillColor=none;align=center;verticalAlign=middle;whiteSpace=wrap;rounded=0;fontSize=16;" vertex="1" parent="1">
          <mxGeometry x="483" y="50" width="40" height="20" as="geometry" />
        </mxCell>
        <mxCell id="hbLUMs-cLDC_c3JnMp7D-45" value="" style="endArrow=classic;html=1;fontSize=16;fontColor=#000000;exitX=1;exitY=0;exitDx=0;exitDy=0;entryX=0;entryY=1;entryDx=0;entryDy=0;" edge="1" parent="1" source="hbLUMs-cLDC_c3JnMp7D-39" target="hbLUMs-cLDC_c3JnMp7D-42">
          <mxGeometry width="50" height="50" relative="1" as="geometry">
            <mxPoint x="679" y="170" as="sourcePoint" />
            <mxPoint x="729" y="120" as="targetPoint" />
          </mxGeometry>
        </mxCell>
        <mxCell id="hbLUMs-cLDC_c3JnMp7D-46" value="" style="ellipse;whiteSpace=wrap;html=1;fontSize=20;fontColor=#99FF99;fillColor=#FF8000;" vertex="1" parent="1">
          <mxGeometry x="488" y="250" width="30" height="30" as="geometry" />
        </mxCell>
        <mxCell id="hbLUMs-cLDC_c3JnMp7D-47" value="" style="endArrow=none;dashed=1;html=1;fontSize=20;" edge="1" parent="1" target="hbLUMs-cLDC_c3JnMp7D-46">
          <mxGeometry width="50" height="50" relative="1" as="geometry">
            <mxPoint x="223" y="265" as="sourcePoint" />
            <mxPoint x="463" y="265" as="targetPoint" />
          </mxGeometry>
        </mxCell>
        <mxCell id="hbLUMs-cLDC_c3JnMp7D-48" value="" style="endArrow=classic;html=1;fontSize=16;fontColor=#000000;exitX=1;exitY=1;exitDx=0;exitDy=0;entryX=0;entryY=0;entryDx=0;entryDy=0;" edge="1" parent="1" source="hbLUMs-cLDC_c3JnMp7D-39" target="hbLUMs-cLDC_c3JnMp7D-46">
          <mxGeometry width="50" height="50" relative="1" as="geometry">
            <mxPoint x="679" y="170" as="sourcePoint" />
            <mxPoint x="729" y="120" as="targetPoint" />
          </mxGeometry>
        </mxCell>
        <mxCell id="hbLUMs-cLDC_c3JnMp7D-49" value="" style="endArrow=classic;html=1;fontSize=16;fontColor=#000000;exitX=1;exitY=0.5;exitDx=0;exitDy=0;entryX=0;entryY=0.5;entryDx=0;entryDy=0;" edge="1" parent="1" source="hbLUMs-cLDC_c3JnMp7D-46" target="hbLUMs-cLDC_c3JnMp7D-8">
          <mxGeometry width="50" height="50" relative="1" as="geometry">
            <mxPoint x="718" y="170" as="sourcePoint" />
            <mxPoint x="768" y="120" as="targetPoint" />
          </mxGeometry>
        </mxCell>
        <mxCell id="hbLUMs-cLDC_c3JnMp7D-50" value="" style="ellipse;whiteSpace=wrap;html=1;fontSize=20;fontColor=#99FF99;fillColor=#9933FF;" vertex="1" parent="1">
          <mxGeometry x="349" y="170" width="30" height="30" as="geometry" />
        </mxCell>
        <mxCell id="hbLUMs-cLDC_c3JnMp7D-51" value="" style="endArrow=none;dashed=1;html=1;fontSize=20;" edge="1" parent="1" target="hbLUMs-cLDC_c3JnMp7D-50">
          <mxGeometry width="50" height="50" relative="1" as="geometry">
            <mxPoint x="223" y="185" as="sourcePoint" />
            <mxPoint x="427" y="185" as="targetPoint" />
          </mxGeometry>
        </mxCell>
        <mxCell id="hbLUMs-cLDC_c3JnMp7D-52" value="" style="endArrow=classic;html=1;fontSize=16;fontColor=#000000;exitX=1;exitY=0.5;exitDx=0;exitDy=0;entryX=0;entryY=0.5;entryDx=0;entryDy=0;" edge="1" parent="1" source="hbLUMs-cLDC_c3JnMp7D-50" target="hbLUMs-cLDC_c3JnMp7D-39">
          <mxGeometry width="50" height="50" relative="1" as="geometry">
            <mxPoint x="586" y="390" as="sourcePoint" />
            <mxPoint x="636" y="340" as="targetPoint" />
          </mxGeometry>
        </mxCell>
      </root>
    </mxGraphModel>
  </diagram>
</mxfile>
